<svg xmlns="http://www.w3.org/2000/svg" xmlns:xlink="http://www.w3.org/1999/xlink" width="750" height="750" version="1.1" viewBox="0 0 750 750"><title>Flag_Enby</title><desc>Created with Sketch.</desc><defs><path id="path-1" d="M0,457.328741 L0,83.4290088 C0,37.8160754 36.5699812,0.747978607 81.9553494,0.0111779646 L83.3333333,0 L666.666667,0 C712.227292,0 749.252879,36.6119675 749.988835,82.0494428 L750,83.4290088 L750,457.328741 C750,502.941674 713.430019,540.009771 668.044651,540.746572 L666.666667,540.75775 L83.3333333,540.75775 C37.7727083,540.75775 0.747120833,504.145782 0.0111651458,458.708307 L0,457.328741 L0,83.4290088 L0,457.328741 Z"/></defs><g id="Flag_Enby" fill="none" fill-rule="evenodd" stroke="none" stroke-width="1"><g id="Flag"><g id="Flags/Pride" transform="translate(0.000000, 105.000000)"><mask id="mask-2" fill="#fff"><use xlink:href="#path-1"/></mask><use id="Mask" fill="#EEE" fill-rule="nonzero" xlink:href="#path-1"/><g id="Flags/Non-binary" mask="url(#mask-2)"><g id="Non-binary"><g transform="translate(-76.000000, 0.000000)"><rect id="Black" width="902" height="135.25" x="0" y="405.75" fill="#000"/><rect id="Purple" width="902" height="135.25" x="0" y="270.5" fill="#9C59D1"/><rect id="White" width="902" height="135.25" x="0" y="135.25" fill="#FFF"/><rect id="Yellow" width="902" height="135.25" x="0" y="0" fill="#FFF430"/></g></g></g></g></g></g></svg>