<svg xmlns="http://www.w3.org/2000/svg" xmlns:xlink="http://www.w3.org/1999/xlink" width="750" height="750" version="1.1" viewBox="0 0 750 750"><title>Flag_Progress</title><desc>Created with Sketch.</desc><defs><path id="path-1" d="M0,457.328741 L0,83.4290088 C0,37.8160754 36.5699812,0.747978607 81.9553494,0.0111779646 L83.3333333,0 L666.666667,0 C712.227292,0 749.252879,36.6119675 749.988835,82.0494428 L750,83.4290088 L750,457.328741 C750,502.941674 713.430019,540.009771 668.044651,540.746572 L666.666667,540.75775 L83.3333333,540.75775 C37.7727083,540.75775 0.747120833,504.145782 0.0111651458,458.708307 L0,457.328741 L0,83.4290088 L0,457.328741 Z"/></defs><g id="Flag_Progress" fill="none" fill-rule="evenodd" stroke="none" stroke-width="1"><g id="Flag" transform="translate(1.000000, 105.000000)"><g id="Flags/Pride"><mask id="mask-2" fill="#fff"><use xlink:href="#path-1"/></mask><use id="Mask" fill="#EEE" fill-rule="nonzero" xlink:href="#path-1"/><g id="Flags/Progress" mask="url(#mask-2)"><g transform="translate(-1.000000, 0.000000)"><g id="Pride" fill="none" stroke-width="1"><polygon id="Path" fill="#750787" fill-rule="nonzero" points="0 0 902 0 902 541 0 541"/><polygon id="Path" fill="#004DFF" fill-rule="nonzero" points="0 0 902 0 902 450.833 0 450.833"/><polygon id="Path" fill="#008026" fill-rule="nonzero" points="0 0 902 0 902 360.667 0 360.667"/><polygon id="Path" fill="#FFED00" fill-rule="nonzero" points="0 0 902 0 902 270.5 0 270.5"/><polygon id="Path" fill="#FF8C00" fill-rule="nonzero" points="0 0 902 0 902 180.333 0 180.333"/><polygon id="Path" fill="#E40303" fill-rule="nonzero" points="0 0 902 0 902 90.167 0 90.167"/></g><polygon id="Path-6-Copy-2" fill="#000" points="0 -138.718 400.972 270.5 0 679.718"/><polygon id="Path-6-Copy" fill="#784F17" points="0 -69.359 333.011 270.5 0 610.359"/><polygon id="Path-6" fill="#5BCEFA" points="0 0 265.049 270.5 0 541"/><polygon id="Path-6-Copy-3" fill="#F5A9B8" points="0 69.359 197.088 270.5 0 471.641"/><polygon id="Path-6-Copy-4" fill="#FFF" points="0 138.718 129.127 270.5 0 402.282"/></g></g></g></g></g></svg>