<svg xmlns="http://www.w3.org/2000/svg" xmlns:xlink="http://www.w3.org/1999/xlink" width="750" height="750" version="1.1" viewBox="0 0 750 750"><title>Heart_Intersex</title><desc>Created with Sketch.</desc><defs><path id="path-1" d="M746.607361,243.240969 C746.607361,131.061802 654.688417,40.1246354 541.318944,40.1246354 C472.494167,40.1246354 411.76275,73.7372188 374.5,125.113219 C337.23725,73.7372188 276.505833,40.1246354 207.701861,40.1246354 C94.3115833,40.1246354 2.39263889,131.041219 2.39263889,243.240969 C2.39263889,259.131302 4.43158333,274.527635 7.92691667,289.368219 C36.4305278,464.594135 233.355111,649.453052 374.5,700.211552 C515.624083,649.453052 712.569472,464.594135 741.031472,289.388802 C744.568417,274.548219 746.607361,259.151885 746.607361,243.240969 L746.607361,243.240969 Z"/></defs><g id="Heart_Intersex" fill="none" fill-rule="evenodd" stroke="none" stroke-width="1"><g id="Heart" transform="translate(1.000000, 4.000000)"><mask id="mask-2" fill="#fff"><use xlink:href="#path-1"/></mask><use id="Mask" fill="#DD2E44" fill-rule="nonzero" xlink:href="#path-1"/><g id="Flags/Intersex" fill-rule="evenodd" stroke-width="1" mask="url(#mask-2)"><g id="Intersex"><g transform="translate(-181.398437, 37.628906)"><rect id="Rectangle" width="1122" height="666" x="0" y="0" fill="#FFD800"/><path id="Combined-Shape" fill="#7902AA" d="M561,141.738462 C667.772786,141.738462 754.329231,227.560309 754.329231,333.426923 C754.329231,439.293537 667.772786,525.115385 561,525.115385 C454.227214,525.115385 367.670769,439.293537 367.670769,333.426923 C367.670769,227.560309 454.227214,141.738462 561,141.738462 Z M560.439625,197.300334 C484.924959,197.300334 423.708227,257.997525 423.708227,332.871304 C423.708227,407.745084 484.924959,468.442274 560.439625,468.442274 C635.954291,468.442274 697.171023,407.745084 697.171023,332.871304 C697.171023,257.997525 635.954291,197.300334 560.439625,197.300334 Z"/></g></g></g></g></g></svg>