<svg xmlns="http://www.w3.org/2000/svg" xmlns:xlink="http://www.w3.org/1999/xlink" width="750" height="750" version="1.1" viewBox="0 0 750 750"><title>Heart_Lesbian</title><desc>Created with Sketch.</desc><defs><path id="path-1" d="M746.607361,243.240969 C746.607361,131.061802 654.688417,40.1246354 541.318944,40.1246354 C472.494167,40.1246354 411.76275,73.7372188 374.5,125.113219 C337.23725,73.7372188 276.505833,40.1246354 207.701861,40.1246354 C94.3115833,40.1246354 2.39263889,131.041219 2.39263889,243.240969 C2.39263889,259.131302 4.43158333,274.527635 7.92691667,289.368219 C36.4305278,464.594135 233.355111,649.453052 374.5,700.211552 C515.624083,649.453052 712.569472,464.594135 741.031472,289.388802 C744.568417,274.548219 746.607361,259.151885 746.607361,243.240969 L746.607361,243.240969 Z"/></defs><g id="Heart_Lesbian" fill="none" fill-rule="evenodd" stroke="none" stroke-width="1"><g id="Heart" transform="translate(1.000000, 4.000000)"><mask id="mask-2" fill="#fff"><use xlink:href="#path-1"/></mask><use id="Mask" fill="#DD2E44" fill-rule="nonzero" xlink:href="#path-1"/><g id="Flags/Lesbian" fill-rule="evenodd" stroke-width="1" mask="url(#mask-2)"><g id="Lesbian"><g transform="translate(-181.398437, 37.628906)"><rect id="Rectangle" width="1122" height="666" x="0" y="0" fill="#8A1E04" fill-rule="nonzero"/><rect id="Rectangle" width="1122" height="570.857" x="0" y="0" fill="#C54E54" fill-rule="nonzero"/><rect id="Rectangle" width="1122" height="475.714" x="0" y="0" fill="#E4ACCF" fill-rule="nonzero"/><rect id="Rectangle" width="1122" height="380.571" x="0" y="0" fill="#EDEDEB" fill-rule="nonzero"/><rect id="Rectangle" width="1122" height="285.429" x="0" y="0" fill="#D063A6" fill-rule="nonzero"/><rect id="Rectangle" width="1122" height="190.286" x="0" y="0" fill="#B75592" fill-rule="nonzero"/><rect id="Rectangle" width="1122" height="95.143" x="0" y="0" fill="#A40061" fill-rule="nonzero"/></g></g></g></g></g></svg>