<svg xmlns="http://www.w3.org/2000/svg" xmlns:xlink="http://www.w3.org/1999/xlink" width="750" height="750" version="1.1" viewBox="0 0 750 750"><title>Heart_Progress</title><desc>Created with Sketch.</desc><defs><path id="path-1" d="M746.607361,243.240969 C746.607361,131.061802 654.688417,40.1246354 541.318944,40.1246354 C472.494167,40.1246354 411.76275,73.7372188 374.5,125.113219 C337.23725,73.7372188 276.505833,40.1246354 207.701861,40.1246354 C94.3115833,40.1246354 2.39263889,131.041219 2.39263889,243.240969 C2.39263889,259.131302 4.43158333,274.527635 7.92691667,289.368219 C36.4305278,464.594135 233.355111,649.453052 374.5,700.211552 C515.624083,649.453052 712.569472,464.594135 741.031472,289.388802 C744.568417,274.548219 746.607361,259.151885 746.607361,243.240969 L746.607361,243.240969 Z"/></defs><g id="Heart_Progress" fill="none" fill-rule="evenodd" stroke="none" stroke-width="1"><g id="Heart" transform="translate(1.000000, 4.000000)"><mask id="mask-2" fill="#fff"><use xlink:href="#path-1"/></mask><use id="Mask" fill="#DD2E44" fill-rule="nonzero" xlink:href="#path-1"/><g id="Flags/Progress" mask="url(#mask-2)"><g transform="translate(-21.398437, 37.628906)"><g id="Pride" fill="none" stroke-width="1"><polygon id="Path" fill="#750787" fill-rule="nonzero" points="0 0 1122 0 1122 666 0 666"/><polygon id="Path" fill="#004DFF" fill-rule="nonzero" points="0 0 1122 0 1122 555 0 555"/><polygon id="Path" fill="#008026" fill-rule="nonzero" points="0 0 1122 0 1122 444 0 444"/><polygon id="Path" fill="#FFED00" fill-rule="nonzero" points="0 0 1122 0 1122 333 0 333"/><polygon id="Path" fill="#FF8C00" fill-rule="nonzero" points="0 0 1122 0 1122 222 0 222"/><polygon id="Path" fill="#E40303" fill-rule="nonzero" points="0 0 1122 0 1122 111 0 111"/></g><polygon id="Path-6-Copy-2" fill="#000" points="0 -170.769 498.77 333 0 836.769"/><polygon id="Path-6-Copy" fill="#784F17" points="0 -85.385 414.233 333 0 751.385"/><polygon id="Path-6" fill="#5BCEFA" points="0 0 329.695 333 0 666"/><polygon id="Path-6-Copy-3" fill="#F5A9B8" points="0 85.385 245.158 333 0 580.615"/><polygon id="Path-6-Copy-4" fill="#FFF" points="0 170.769 160.621 333 0 495.231"/></g></g></g></g></svg>