<svg xmlns="http://www.w3.org/2000/svg" xmlns:xlink="http://www.w3.org/1999/xlink" width="750" height="750" version="1.1" viewBox="0 0 750 750"><title>Heart_Pride</title><desc>Created with Sketch.</desc><defs><path id="path-1" d="M746.607361,243.240969 C746.607361,131.061802 654.688417,40.1246354 541.318944,40.1246354 C472.494167,40.1246354 411.76275,73.7372188 374.5,125.113219 C337.23725,73.7372188 276.505833,40.1246354 207.701861,40.1246354 C94.3115833,40.1246354 2.39263889,131.041219 2.39263889,243.240969 C2.39263889,259.131302 4.43158333,274.527635 7.92691667,289.368219 C36.4305278,464.594135 233.355111,649.453052 374.5,700.211552 C515.624083,649.453052 712.569472,464.594135 741.031472,289.388802 C744.568417,274.548219 746.607361,259.151885 746.607361,243.240969 L746.607361,243.240969 Z"/></defs><g id="Heart_Pride" fill="none" fill-rule="evenodd" stroke="none" stroke-width="1"><g id="Heart" transform="translate(1.000000, 4.000000)"><mask id="mask-2" fill="#fff"><use xlink:href="#path-1"/></mask><use id="Mask" fill="#DD2E44" fill-rule="nonzero" xlink:href="#path-1"/><g id="Flags/Pride" fill-rule="evenodd" stroke-width="1" mask="url(#mask-2)"><g id="Pride"><g transform="translate(-181.398437, 37.628906)"><polygon id="Path" fill="#750787" fill-rule="nonzero" points="0 0 1122 0 1122 666 0 666"/><polygon id="Path" fill="#004DFF" fill-rule="nonzero" points="0 0 1122 0 1122 583.177 0 583.177"/><polygon id="Path" fill="#008026" fill-rule="nonzero" points="0 0 1122 0 1122 499.5 0 499.5"/><polygon id="Path" fill="#FFED00" fill-rule="nonzero" points="0 0 1122 0 1122 416.677 0 416.677"/><polygon id="Path" fill="#FF8C00" fill-rule="nonzero" points="0 0 1122 0 1122 333 0 333"/><polygon id="Path" fill="#E40303" fill-rule="nonzero" points="0 0 1122 0 1122 250.177 0 250.177"/><polygon id="Path" fill="#784F17" fill-rule="nonzero" points="0 0 1122 0 1122 166.5 0 166.5"/><polygon id="Path" fill="#000" fill-rule="nonzero" points="0 0 1122 0 1122 83.677 0 83.677"/></g></g></g></g></g></svg>