<svg xmlns="http://www.w3.org/2000/svg" xmlns:xlink="http://www.w3.org/1999/xlink" width="750" height="750" version="1.1" viewBox="0 0 750 750"><title>Heart_MaleHomosexual</title><desc>Created with Sketch.</desc><defs><path id="path-1" d="M746.607361,243.240969 C746.607361,131.061802 654.688417,40.1246354 541.318944,40.1246354 C472.494167,40.1246354 411.76275,73.7372188 374.5,125.113219 C337.23725,73.7372188 276.505833,40.1246354 207.701861,40.1246354 C94.3115833,40.1246354 2.39263889,131.041219 2.39263889,243.240969 C2.39263889,259.131302 4.43158333,274.527635 7.92691667,289.368219 C36.4305278,464.594135 233.355111,649.453052 374.5,700.211552 C515.624083,649.453052 712.569472,464.594135 741.031472,289.388802 C744.568417,274.548219 746.607361,259.151885 746.607361,243.240969 L746.607361,243.240969 Z"/></defs><g id="Heart_MaleHomosexual" fill="none" fill-rule="evenodd" stroke="none" stroke-width="1"><g id="Heart" transform="translate(1.000000, 4.000000)"><mask id="mask-2" fill="#fff"><use xlink:href="#path-1"/></mask><use id="Mask" fill="#DD2E44" fill-rule="nonzero" xlink:href="#path-1"/><g id="Flags/Male-HomosexualImproved" fill-rule="evenodd" stroke-width="1" mask="url(#mask-2)"><g id="male-homosexual"><g transform="translate(-181.398437, 37.628906)"><rect id="1" width="1122" height="666" x="0" y="0" fill="#3F2077"/><rect id="2" width="1122" height="475.729" x="0" y="94.777" fill="#504BCB"/><rect id="3" width="1122" height="285.458" x="0" y="190.408" fill="#7AACE1"/><rect id="7" width="1121" height="189.408" x=".5" y=".5" fill="#118C70" stroke="#979797"/><rect id="6" width="1122" height="190.408" x="0" y="94.777" fill="#2DCDA9"/><rect id="5" width="1122" height="189.554" x="0" y="190.408" fill="#97E7C0"/><rect id="4" width="1122" height="95.187" x="0" y="285.185" fill="#EFEFFF"/></g></g></g></g></g></svg>